<?xml version="1.0" standalone="no"?>
<!DOCTYPE svg PUBLIC "-//W3C//DTD SVG 20010904//EN"
 "http://www.w3.org/TR/2001/REC-SVG-20010904/DTD/svg10.dtd">
<svg version="1.0" xmlns="http://www.w3.org/2000/svg"
 width="60px" height="60px" viewBox="0 0 1024.000000 1024.000000"
 preserveAspectRatio="xMidYMid meet">

<g transform="translate(0.000000,1024.000000) scale(0.100000,-0.100000)"
fill="#000000" stroke="none">
<path d="M4292 9448 c-38 -38 23 -120 125 -169 36 -17 66 -29 69 -27 2 3 -23
17 -56 33 -33 16 -67 39 -76 52 -8 13 -18 22 -22 19 -14 -8 -29 28 -28 67 1
20 1 37 1 37 -1 0 -6 -5 -13 -12z"/>
<path d="M6098 9344 c4 -31 -1 -40 -39 -76 -23 -22 -33 -36 -22 -30 52 28 95
117 65 136 -4 2 -6 -11 -4 -30z"/>
<path d="M4650 9350 c-22 -14 -10 -19 84 -37 80 -16 87 -16 103 -1 15 16 14
17 -13 23 -16 3 -48 10 -72 15 -53 12 -83 12 -102 0z"/>
<path d="M5888 9323 c7 -3 16 -2 19 1 4 3 -2 6 -13 5 -11 0 -14 -3 -6 -6z"/>
<path d="M5565 9308 c-38 -5 -72 -12 -74 -14 -2 -2 2 -11 9 -20 12 -13 28 -14
109 -8 53 4 104 7 114 6 12 0 5 8 -18 24 -39 26 -37 26 -140 12z"/>
<path d="M5030 9281 c0 -11 -5 -21 -12 -21 -6 0 -9 -2 -6 -5 7 -8 357 -26 368
-20 4 3 6 13 3 24 -4 16 -18 19 -96 25 -51 3 -129 9 -174 12 -80 6 -83 6 -83
-15z"/>
<path d="M4930 9270 c-9 -6 -10 -10 -3 -10 6 0 15 5 18 10 8 12 4 12 -15 0z"/>
<path d="M5033 9193 c9 -2 23 -2 30 0 6 3 -1 5 -18 5 -16 0 -22 -2 -12 -5z"/>
<path d="M5428 9173 c7 -3 16 -2 19 1 4 3 -2 6 -13 5 -11 0 -14 -3 -6 -6z"/>
<path d="M4868 9163 c6 -2 18 -2 25 0 6 3 1 5 -13 5 -14 0 -19 -2 -12 -5z"/>
<path d="M4928 9153 c6 -2 18 -2 25 0 6 3 1 5 -13 5 -14 0 -19 -2 -12 -5z"/>
<path d="M5025 9140 c69 -11 126 -10 65 1 -25 4 -61 7 -80 7 -29 -1 -26 -2 15
-8z"/>
<path d="M5215 9120 c112 -10 254 -18 233 -13 -10 2 -18 8 -18 11 0 4 -67 8
-148 8 -124 1 -135 0 -67 -6z"/>
<path d="M2765 7746 c-27 -7 -74 -25 -103 -41 -56 -30 -162 -136 -162 -161 0
-17 -7 -18 92 7 258 63 564 22 981 -133 85 -32 111 -38 120 -28 15 15 -32 57
-166 146 -266 178 -561 259 -762 210z"/>
<path d="M7157 7624 c-167 -30 -316 -97 -492 -219 -100 -70 -140 -108 -130
-124 10 -17 17 -15 194 53 291 111 379 130 631 130 102 1 215 -3 253 -7 60 -8
67 -7 67 9 0 27 -77 94 -144 125 -105 49 -232 60 -379 33z"/>
<path d="M2795 7126 c-130 -30 -289 -98 -390 -167 -56 -38 -150 -133 -203
-204 -49 -67 -123 -208 -142 -273 -7 -23 -17 -42 -22 -42 -5 0 -7 -4 -4 -8 2
-4 -6 -46 -19 -92 -13 -47 -26 -114 -30 -150 -3 -36 -10 -86 -16 -111 -8 -35
-7 -184 1 -184 3 0 7 -26 14 -90 9 -84 44 -228 73 -305 32 -85 106 -244 116
-248 4 -2 7 -12 7 -23 0 -11 7 -22 15 -26 20 -7 47 -58 37 -68 -4 -5 -2 -5 4
-2 6 3 28 -15 50 -41 96 -116 199 -195 339 -262 145 -70 238 -91 427 -97 244
-9 401 24 590 124 146 77 139 87 -17 27 -66 -25 -80 -27 -235 -27 -137 0 -178
4 -243 21 -112 31 -236 83 -325 138 -82 50 -246 206 -298 284 -122 179 -195
388 -216 615 -10 112 -9 146 6 250 20 139 71 302 124 390 59 100 200 253 277
300 18 11 52 33 76 50 24 16 49 30 54 32 41 11 85 29 85 35 0 5 11 8 24 8 14
0 28 5 31 11 4 6 13 8 20 5 8 -3 15 -1 17 5 3 8 36 19 66 21 6 1 12 6 12 11 0
5 6 4 13 -2 8 -6 17 -8 21 -4 7 7 24 11 64 15 12 1 22 5 22 9 0 4 15 3 34 -1
20 -4 39 -3 44 2 6 6 12 6 16 -1 5 -7 15 -7 33 0 15 6 39 8 53 5 57 -13 -36
28 -120 52 -71 20 -112 25 -255 28 -121 3 -187 0 -230 -10z m-778 -983 c-3
-10 -5 -2 -5 17 0 19 2 27 5 18 2 -10 2 -26 0 -35z m37 -415 c51 -268 178
-506 369 -690 53 -52 64 -66 46 -63 -36 6 -197 180 -258 278 -104 169 -175
377 -201 588 -12 103 -9 182 11 264 1 6 5 -57 9 -140 4 -82 15 -189 24 -237z"/>
<path d="M7100 7038 c-84 -9 -194 -36 -245 -59 -22 -10 -31 -18 -20 -17 11 2
26 -1 33 -5 6 -5 12 -4 12 2 0 6 6 8 13 6 6 -3 50 -7 97 -9 47 -2 85 -5 85 -6
0 -1 13 -4 29 -6 16 -3 37 -9 47 -15 10 -5 27 -9 38 -9 12 0 21 -4 21 -10 0
-5 7 -10 16 -10 54 0 291 -209 368 -324 55 -82 129 -248 154 -341 74 -282 41
-608 -92 -887 -166 -351 -488 -576 -848 -592 -138 -7 -251 11 -343 54 -27 13
-55 25 -62 26 -7 1 -27 12 -45 24 l-33 22 30 -27 c173 -152 551 -251 825 -215
114 15 243 50 326 90 56 27 197 122 231 156 9 8 26 22 39 31 13 8 21 20 17 26
-3 5 -2 7 4 4 10 -6 62 51 108 121 15 23 32 42 36 42 5 0 9 4 9 8 0 5 20 46
46 93 75 139 162 426 190 629 11 75 8 202 -5 209 -7 5 -12 11 -11 15 5 18 -14
150 -31 215 -10 41 -19 81 -19 89 0 14 -6 29 -51 131 -64 144 -249 336 -409
423 -166 91 -387 136 -560 116z m987 -905 c-3 -10 -5 -4 -5 12 0 17 2 24 5 18
2 -7 2 -21 0 -30z m10 -110 c-3 -10 -5 -2 -5 17 0 19 2 27 5 18 2 -10 2 -26 0
-35z m0 -85 c-2 -13 -4 -5 -4 17 -1 22 1 32 4 23 2 -10 2 -28 0 -40z"/>
<path d="M3850 6766 c0 -2 8 -10 18 -17 15 -13 16 -12 3 4 -13 16 -21 21 -21
13z"/>
<path d="M3115 6714 c-212 -47 -387 -214 -462 -439 -23 -70 -27 -96 -27 -210
0 -114 4 -140 27 -211 49 -148 152 -277 282 -356 271 -163 630 -79 809 190
138 208 152 457 40 690 -122 252 -406 395 -669 336z m-262 -283 c29 -11 45
-53 40 -101 -9 -74 -64 -131 -128 -133 -111 -3 -95 178 20 229 37 16 38 16 68
5z m911 -373 c52 -74 -22 -183 -90 -134 -25 19 -26 91 -1 129 22 35 69 37 91
5z"/>
<path d="M6751 6634 c-109 -29 -219 -103 -306 -205 -61 -71 -91 -125 -121
-211 -113 -332 17 -679 307 -822 205 -101 418 -83 607 51 114 81 217 235 251
376 44 185 10 389 -91 544 -81 125 -226 232 -364 268 -72 19 -211 18 -283 -1z
m-181 -304 c63 -63 25 -190 -67 -221 -94 -31 -149 40 -108 139 38 89 126 131
175 82z m739 -316 c14 -18 21 -41 21 -71 0 -56 -11 -77 -50 -93 -28 -11 -34
-11 -58 7 -32 24 -43 60 -32 108 17 75 79 100 119 49z"/>
<path d="M1685 4990 c-36 -6 -35 -22 2 -32 31 -9 49 3 37 24 -6 9 -19 12 -39
8z"/>
<path d="M6290 4906 c0 -2 8 -10 18 -17 15 -13 16 -12 3 4 -13 16 -21 21 -21
13z"/>
<path d="M8312 4843 l-33 -66 43 44 c31 31 40 47 32 54 -6 6 -9 16 -7 23 11
30 -5 7 -35 -55z"/>
<path d="M4828 4421 c-68 -17 -116 -47 -100 -63 13 -13 245 -27 445 -28 164 0
178 1 175 17 -5 26 -76 62 -155 78 -95 20 -281 18 -365 -4z"/>
<path d="M3545 3855 c22 -8 49 -13 60 -13 11 0 -2 6 -30 14 -63 17 -84 16 -30
-1z"/>
<path d="M3638 3833 c7 -3 16 -2 19 1 4 3 -2 6 -13 5 -11 0 -14 -3 -6 -6z"/>
<path d="M3678 3823 c6 -2 18 -2 25 0 6 3 1 5 -13 5 -14 0 -19 -2 -12 -5z"/>
<path d="M3830 3760 c0 -27 -2 -29 -19 -18 -15 9 -24 8 -43 -4 -14 -9 -37 -13
-58 -11 -26 3 -45 -2 -74 -22 -32 -21 -44 -25 -61 -17 -33 15 -101 -3 -163
-44 -44 -29 -59 -47 -85 -102 -17 -37 -33 -71 -35 -76 -3 -5 1 -5 8 -1 9 6 11
4 5 -4 -4 -7 -17 -10 -30 -7 -47 12 -30 -20 60 -109 50 -49 111 -114 135 -144
25 -30 53 -61 63 -70 9 -8 17 -20 17 -27 0 -6 23 -34 50 -63 28 -29 48 -57 45
-62 -4 -5 -1 -9 5 -9 7 0 9 -7 6 -16 -4 -9 -2 -22 4 -29 12 -14 -6 -71 -48
-154 -46 -92 -79 -113 -170 -107 -84 6 -126 37 -313 228 l-177 180 -43 -22
c-51 -26 -209 -120 -209 -124 0 -2 24 -15 54 -30 67 -33 151 -120 165 -171 9
-35 8 -43 -18 -85 -77 -122 -135 -255 -152 -345 -18 -100 -27 -208 -19 -231 8
-19 0 -28 -68 -76 -108 -77 -105 -77 -151 -10 -21 31 -56 73 -77 92 -23 20
-30 24 -18 10 50 -62 50 -61 13 -54 -19 3 -53 15 -75 26 l-42 21 -26 -20 -26
-21 77 -17 c42 -9 95 -25 118 -35 52 -22 112 -91 126 -144 11 -41 58 -265 59
-278 0 -4 -11 -13 -24 -20 -29 -15 -92 -95 -111 -141 -24 -58 -76 -89 -173
-101 -90 -12 -178 -44 -217 -80 -29 -27 -35 -40 -34 -72 l0 -39 12 34 c9 27
26 42 75 69 51 28 180 71 214 72 4 0 15 -17 23 -37 13 -30 14 -69 9 -236 -3
-110 -10 -211 -15 -224 -6 -16 -5 -22 1 -18 14 9 12 -8 -3 -25 -10 -12 -9 -12
6 -1 9 8 20 11 23 9 8 -9 -32 -69 -41 -60 -4 4 0 -5 9 -19 l17 -27 -35 -6
c-33 -6 -54 -22 -43 -32 2 -3 45 -9 95 -15 72 -9 128 -8 264 5 342 31 335 30
378 11 45 -20 49 -29 20 -45 -31 -17 -24 -38 18 -49 280 -75 933 -54 1452 46
114 22 162 26 310 26 96 0 256 -6 355 -13 99 -6 360 -15 580 -20 345 -6 414
-10 500 -28 168 -35 307 -45 557 -39 231 4 262 8 353 47 34 14 114 29 245 45
166 20 218 33 230 56 12 22 53 41 134 64 54 15 57 17 40 31 -13 10 -15 17 -7
20 6 3 9 16 7 30 -3 17 -1 23 7 19 8 -6 8 -2 0 14 -11 20 -9 19 25 -4 20 -14
42 -25 48 -25 6 0 -6 11 -27 25 -20 14 -36 29 -35 33 2 4 -3 21 -11 39 -9 24
-10 40 -3 61 7 22 7 29 -3 29 -8 0 -12 -8 -10 -19 2 -10 0 -16 -6 -13 -23 15
-4 87 27 99 13 5 15 1 10 -21 l-7 -28 20 25 c14 18 17 28 9 37 -8 10 -5 13 11
13 26 0 86 -97 70 -116 -6 -8 -5 -14 6 -18 9 -3 13 -2 10 4 -3 6 -2 10 4 10 5
0 15 -8 20 -17 16 -27 13 -10 -5 33 -34 81 -49 303 -25 363 14 32 23 36 149
66 45 11 55 10 67 -2 13 -13 15 -13 15 1 0 25 -14 26 -95 11 -43 -9 -87 -13
-97 -9 -29 9 -74 63 -103 123 -15 31 -39 71 -52 89 -25 33 -25 36 -21 195 3
150 5 166 30 219 15 32 23 60 17 63 -15 10 -28 -4 -60 -67 -20 -40 -35 -58
-44 -54 -8 3 -47 31 -88 63 l-74 58 -6 66 c-7 64 -21 114 -51 182 -8 17 -26
58 -40 91 -33 75 -90 169 -136 226 -20 25 -51 66 -69 91 l-33 46 32 62 c17 35
40 65 52 70 20 7 20 9 -10 30 -18 12 -83 46 -144 76 l-113 54 -8 -36 c-30
-143 -218 -339 -425 -442 l-62 -31 16 -33 c9 -17 28 -44 42 -60 19 -20 26 -39
27 -70 1 -60 39 -129 120 -215 80 -86 223 -208 289 -247 45 -26 45 -27 29 -52
-15 -22 -15 -34 -6 -97 17 -104 23 -129 36 -145 7 -8 11 -16 9 -18 -2 -2 24
-48 57 -102 33 -53 62 -111 66 -127 4 -24 2 -22 -14 12 -25 53 -116 198 -155
248 -17 21 -59 60 -93 87 -128 102 -248 126 -322 63 -36 -30 -207 -256 -285
-377 -81 -123 -143 -260 -157 -343 -16 -90 -1 -168 53 -276 51 -101 113 -169
191 -208 56 -28 59 -31 27 -27 -65 8 -283 78 -352 113 -16 8 -28 12 -28 9 0
-9 -51 25 -106 71 -84 70 -143 211 -144 340 0 117 79 324 172 449 88 119 244
234 344 255 30 6 54 14 54 17 0 2 -13 2 -30 -1 -16 -3 -43 -9 -60 -12 l-30 -6
20 44 c23 52 25 77 6 123 -28 66 -103 54 -214 -35 -34 -28 -66 -50 -70 -50
-14 0 -133 -126 -126 -133 4 -4 1 -7 -7 -8 -8 0 -48 -41 -89 -90 -41 -50 -87
-103 -102 -119 -14 -16 -41 -51 -59 -77 -18 -26 -38 -52 -44 -58 -6 -5 -32
-41 -58 -80 -25 -38 -58 -82 -72 -97 -14 -15 -25 -32 -25 -38 0 -5 -3 -10 -8
-10 -4 0 -21 -13 -38 -28 -98 -89 -349 -140 -502 -103 -99 25 -190 54 -220 72
-18 10 -38 19 -44 19 -9 0 -42 13 -108 44 -101 46 -200 126 -200 161 0 8 -4
15 -9 15 -5 0 -11 14 -15 31 -11 58 -83 194 -144 276 -143 188 -370 353 -487
353 -19 0 -35 4 -35 9 0 5 -14 14 -31 20 -51 18 -82 74 -83 151 0 8 -4 18 -9
21 -4 3 4 14 20 24 15 9 53 44 84 76 56 59 56 60 25 55 -18 -3 -37 -15 -46
-28 -8 -13 -37 -47 -64 -76 -44 -47 -52 -62 -71 -140 -21 -86 -22 -148 -2
-135 5 3 7 2 4 -4 -4 -5 -8 -36 -9 -69 l-3 -58 120 -41 c179 -62 272 -115 372
-214 120 -118 203 -295 203 -435 0 -33 4 -66 8 -72 4 -6 29 -26 57 -43 47 -30
48 -31 17 -27 -17 2 -42 10 -56 19 l-24 16 -17 -62 c-35 -123 -106 -227 -194
-281 -44 -27 -279 -132 -315 -142 -32 -8 -36 12 -3 21 61 19 176 172 217 290
70 204 17 364 -221 665 -143 181 -169 211 -169 192 0 -6 29 -44 66 -83 47 -52
64 -78 62 -95 -2 -14 11 -41 34 -71 66 -87 146 -222 175 -296 23 -60 28 -87
28 -162 0 -80 -3 -97 -30 -150 -34 -68 -43 -78 -92 -112 -89 -61 -329 -80
-543 -44 -127 22 -138 25 -223 68 -26 14 -53 23 -60 20 -6 -2 -18 3 -26 10 -7
8 -20 12 -28 9 -8 -3 -12 -2 -9 3 3 4 -6 18 -19 29 -14 12 -25 25 -26 29 0 5
-2 18 -3 30 -2 13 -10 31 -19 41 -9 10 -17 28 -17 40 0 12 -5 32 -11 46 -14
29 -3 89 11 66 6 -10 9 4 9 40 0 30 9 97 19 148 22 108 14 109 -22 2 -18 -54
-26 -67 -26 -45 0 74 45 190 112 287 43 63 43 64 51 178 11 175 6 160 51 160
36 0 47 8 138 98 158 154 238 281 259 413 6 41 21 80 40 108 16 24 29 53 29
63 0 17 2 17 37 3 21 -9 49 -13 65 -10 56 13 152 156 204 304 21 59 21 68 8
99 -15 36 -12 52 10 52 22 0 54 44 67 93 7 26 16 47 20 47 10 0 16 -247 7
-290 -4 -19 -9 -46 -11 -60 -8 -40 -65 -160 -91 -191 -13 -16 -30 -44 -36 -64
-6 -19 -16 -35 -21 -35 -6 0 -8 -15 -6 -32 2 -18 2 -25 0 -15 -5 21 -23 23
-23 1 0 -8 -4 -13 -8 -10 -5 3 -9 0 -9 -7 0 -7 -4 -28 -7 -47 -4 -22 -3 -30 3
-21 7 11 10 10 18 -4 8 -14 12 -15 24 -3 8 8 20 13 27 10 6 -2 12 1 12 8 0 7
6 8 19 0 27 -14 44 -5 78 43 68 94 85 143 91 256 l5 104 22 -44 c13 -24 35
-57 51 -72 36 -36 147 -89 198 -94 89 -10 259 46 354 116 50 37 51 51 1 22
-73 -43 -217 -82 -302 -83 -96 -2 -128 11 -181 73 -87 102 -187 372 -210 569
-15 125 -17 178 -7 185 6 3 11 0 12 -7 0 -7 5 2 10 20 7 23 15 32 27 31 9 -2
27 2 39 9 20 11 24 9 46 -23 13 -19 26 -33 29 -30 3 3 44 -14 92 -39 47 -25
98 -47 113 -50 43 -8 77 -18 88 -27 6 -4 22 -10 35 -13 14 -3 56 -12 94 -20
38 -9 71 -14 73 -12 2 2 -3 11 -12 20 -20 20 -16 20 21 1 17 -8 45 -15 64 -16
19 -2 39 -5 45 -8 5 -3 32 -6 60 -7 72 -3 155 -13 168 -21 14 -9 266 -10 260
0 -2 4 15 7 39 8 92 1 150 8 164 20 11 9 14 9 14 -1 0 -9 4 -9 13 -3 6 6 19
10 27 10 8 0 33 5 55 11 22 6 43 10 46 9 4 -1 15 5 25 14 24 19 77 42 69 29
-3 -6 1 -7 9 -4 9 3 16 10 16 15 0 5 13 7 30 5 16 -2 28 -1 27 3 -1 3 3 7 8 8
6 1 8 -6 7 -15 -3 -14 -1 -15 9 -4 7 6 21 12 31 12 10 0 26 4 36 9 9 5 55 28
102 51 106 53 121 62 138 78 7 6 16 12 20 12 4 0 21 13 38 30 18 16 35 26 38
23 3 -4 6 -2 6 3 0 5 13 24 28 42 15 18 36 46 46 62 l17 30 -38 -5 c-244 -33
-854 -60 -1148 -51 -417 14 -897 52 -1077 86 -28 6 -64 10 -79 10 -26 0 -29
-4 -29 -30z m-92 -58 c6 -18 -15 -14 -22 4 -4 10 -1 14 6 12 6 -2 14 -10 16
-16z m-250 -210 c-2 -8 5 -16 14 -17 9 -2 27 -13 40 -25 13 -13 17 -20 11 -16
-7 4 -13 5 -13 2 0 -3 12 -13 28 -21 15 -9 18 -14 7 -10 -13 4 -16 3 -10 -3 6
-6 19 -13 30 -16 11 -3 3 -4 -17 -1 -21 2 -51 0 -68 -5 -17 -5 -28 -5 -25 0 3
4 -2 10 -10 14 -8 3 -15 0 -15 -6 0 -6 -6 -5 -17 3 -15 12 -16 12 -8 -1 6 -12
5 -13 -5 -3 -11 11 -11 22 4 68 11 35 21 53 28 49 8 -5 9 -1 4 11 -5 15 -4 16
9 5 8 -7 14 -19 13 -28z m3829 -807 c72 -50 192 -263 237 -419 25 -86 33 -170
18 -192 -11 -17 -45 -30 -74 -29 -16 0 -28 -2 -28 -6 0 -12 -71 8 -90 26 -10
9 -31 35 -46 58 -15 23 -42 57 -58 75 -23 24 -26 31 -12 26 13 -5 17 -4 12 4
-4 6 -24 16 -44 23 -29 8 -37 16 -38 36 -2 18 2 23 14 18 8 -3 19 -1 22 5 11
18 94 13 138 -8 l41 -20 -15 23 c-13 20 -13 23 2 29 15 6 14 10 -8 34 -26 28
-52 82 -41 82 4 0 25 -17 47 -37 l39 -38 -29 39 c-27 37 -31 47 -39 93 -9 58
-57 168 -80 185 -20 15 11 8 32 -7z m-4332 -12 c-4 -10 -10 -27 -13 -38 -3
-11 -11 -30 -18 -43 -7 -14 -11 -32 -9 -41 1 -9 6 -44 10 -78 5 -45 11 -63 22
-63 8 0 12 -4 9 -9 -3 -5 6 -12 19 -15 14 -4 23 -11 20 -15 -3 -5 1 -16 9 -24
8 -8 12 -17 9 -21 -3 -3 -1 -12 6 -19 9 -12 7 -13 -14 -9 -19 3 -24 1 -20 -10
3 -8 -1 -21 -10 -28 -14 -11 -17 -10 -22 9 -6 25 -26 23 -31 -3 -2 -9 2 -15
10 -14 8 2 13 -9 14 -35 1 -31 -4 -41 -25 -52 -14 -8 -20 -14 -12 -15 11 0 10
-4 -4 -14 -11 -8 -30 -13 -42 -11 -19 2 -21 0 -12 -12 9 -11 9 -12 -4 -8 -10
4 -18 -1 -22 -15 -4 -12 -9 -19 -12 -16 -4 3 -12 1 -20 -6 -11 -9 -12 -7 -6 8
6 17 5 17 -10 5 -14 -11 -17 -11 -17 0 0 11 -2 11 -10 -1 -7 -10 -8 11 -5 65
3 52 1 73 -5 60 -16 -36 -11 77 6 135 22 73 184 350 205 350 7 0 8 -7 4 -17z
m4688 -644 c12 -7 48 -36 79 -65 31 -30 61 -54 67 -54 7 0 11 -49 11 -149 l0
-149 -25 -4 c-13 -3 -42 3 -64 13 -22 10 -43 14 -46 9 -13 -21 -187 -130 -197
-124 -6 4 -8 3 -5 -3 3 -5 -10 -25 -31 -44 l-37 -34 30 33 c26 29 28 35 16 53
-10 17 -10 20 1 13 8 -5 8 -1 -2 12 -28 34 -40 68 -43 124 -5 85 10 217 29
245 16 24 16 25 -2 19 -11 -4 22 17 71 46 50 29 94 56 100 61 12 12 22 11 48
-2z m-4866 -71 c55 -58 101 -120 74 -104 -7 5 -7 -2 0 -23 6 -16 9 -40 7 -53
-4 -21 -5 -20 -12 7 -11 46 -35 95 -45 95 -9 0 -10 -16 -1 -35 3 -5 3 -37 -1
-70 -3 -33 -6 -53 -7 -45 -2 10 -7 8 -18 -8 -8 -12 -14 -35 -13 -50 2 -15 0
-33 -4 -39 -5 -7 -3 -22 4 -34 8 -15 8 -19 0 -15 -6 4 -11 2 -11 -5 0 -8 -4
-8 -15 1 -18 15 -20 34 -2 24 7 -4 9 -3 4 2 -5 5 -14 9 -19 9 -6 0 -17 16 -24
35 l-13 35 2 -50 c1 -31 -5 -65 -17 -89 l-19 -40 -12 25 c-7 13 -25 85 -40
159 -15 74 -33 149 -40 167 -13 32 -13 33 23 55 20 13 40 22 44 21 4 -2 5 3 2
11 -5 14 61 76 81 76 6 0 38 -28 72 -62z m4092 -184 c29 -8 61 -24 72 -35 10
-10 19 -16 19 -13 0 9 58 -36 119 -92 32 -29 61 -51 64 -48 3 3 8 0 13 -7 5
-8 3 -10 -6 -4 -8 5 -11 3 -8 -6 3 -8 11 -13 17 -11 7 1 10 -2 6 -7 -3 -6 1
-24 10 -41 17 -33 28 -40 19 -12 -4 9 3 4 15 -13 24 -35 28 -53 6 -35 -12 10
-12 7 1 -19 9 -17 18 -31 20 -31 3 0 2 6 -2 13 -4 6 -3 8 2 4 4 -4 9 -18 10
-30 1 -12 7 -51 14 -87 12 -64 15 -272 4 -320 -3 -14 -6 -30 -7 -35 -5 -21
-92 -105 -109 -105 -10 0 -18 -3 -18 -8 0 -17 -136 -73 -215 -88 -22 -4 -47
-9 -55 -11 -27 -6 -124 -14 -189 -17 -102 -4 -219 28 -274 74 -16 13 -50 65
-52 80 0 3 -7 16 -15 30 -11 18 -15 54 -14 125 1 106 23 193 65 262 17 26 18
37 9 48 -6 8 -8 20 -4 26 5 9 9 8 14 -6 5 -15 14 -7 46 41 124 183 159 232
185 259 35 38 39 58 4 25 -14 -13 -25 -19 -25 -13 0 6 19 26 42 45 23 18 39
28 35 21 -4 -6 18 4 50 23 66 39 63 39 132 18z m904 -205 c14 -18 17 -37 15
-93 l-3 -70 -42 -16 c-22 -8 -49 -22 -60 -31 -19 -17 -53 -22 -53 -7 0 4 7 8
15 8 21 0 19 9 -14 71 l-30 54 20 42 c27 60 61 84 102 72 18 -5 40 -19 50 -30z
m102 -55 c8 -20 15 -51 15 -68 l0 -31 -17 33 c-9 18 -24 37 -34 43 -31 16 -22
54 13 58 4 1 15 -15 23 -35z m-5134 6 c1 -5 2 -14 3 -18 0 -5 9 -16 18 -26 18
-17 15 -39 -8 -66 -12 -15 -14 -20 -14 -40 0 -5 -5 -9 -12 -7 -7 1 -12 -12
-13 -34 -1 -27 2 -36 12 -32 15 6 17 -6 4 -26 -7 -10 -21 -12 -56 -6 -60 8
-76 15 -69 26 3 5 0 9 -5 9 -22 0 -26 2 -43 17 -10 9 -18 23 -18 31 0 21 162
173 178 167 7 -2 10 0 7 5 -3 6 -1 10 4 10 6 0 12 -4 12 -10z m4873 -89 c3 -5
0 -11 -8 -14 -15 -6 -26 1 -26 15 0 11 27 10 34 -1z m313 -47 c-3 -3 -12 -4
-19 -1 -8 3 -5 6 6 6 11 1 17 -2 13 -5z m-436 -71 c-11 -21 -61 -70 -61 -59 0
6 62 75 68 76 1 0 -2 -8 -7 -17z m449 -36 c0 -1 -29 -31 -64 -66 -45 -44 -66
-59 -71 -50 -5 7 -4 10 3 5 6 -3 13 -2 17 4 3 5 1 10 -6 10 -7 0 -6 8 5 25 9
13 16 32 16 42 0 15 2 16 10 3 5 -8 10 -10 10 -5 0 6 5 3 10 -5 8 -13 14 -11
37 13 26 25 33 31 33 24z m-359 -69 c-21 -59 -14 -101 24 -145 19 -23 35 -46
35 -52 0 -6 -16 -29 -37 -51 -52 -58 -57 -118 -16 -193 l30 -54 -41 3 c-85 5
-352 18 -368 17 -10 0 -18 1 -18 2 0 1 20 32 44 68 40 60 62 113 81 192 4 17
10 24 12 17 7 -18 58 -42 90 -42 41 0 69 24 88 74 17 43 17 122 2 156 -5 11 5
21 35 36 48 23 55 18 39 -28z m-4898 17 c27 0 37 -4 37 -15 0 -9 5 -21 11 -27
7 -7 3 -9 -16 -5 -26 4 -26 3 -22 -34 2 -22 8 -38 13 -37 22 4 11 -43 -17 -74
-22 -25 -27 -38 -20 -51 10 -18 22 -82 15 -82 -2 0 -15 21 -29 48 -14 26 -43
68 -66 93 -39 45 -40 48 -30 85 6 22 11 53 11 71 0 35 13 44 50 34 14 -3 42
-6 63 -6z m5257 -69 c0 -2 -8 -10 -17 -17 -16 -13 -17 -12 -4 4 13 16 21 21
21 13z m-2090 -62 c0 -20 15 -68 35 -110 19 -40 35 -76 35 -79 0 -3 -100 -5
-222 -5 l-223 0 60 31 c33 16 85 49 115 73 30 24 78 55 106 69 27 14 56 33 63
41 21 25 31 19 31 -20z m-3403 -16 c-3 -7 -5 -2 -5 12 0 14 2 19 5 13 2 -7 2
-19 0 -25z m5508 -26 c4 -24 9 -52 12 -61 3 -9 -7 4 -21 28 -29 48 -33 78 -12
78 9 0 17 -16 21 -45z m-5397 -205 c18 -19 20 -27 11 -33 -18 -11 -70 -12 -91
-2 -21 10 -24 48 -4 48 8 0 17 7 20 15 7 19 30 9 64 -28z m265 -21 c16 -30 43
-72 62 -93 l33 -39 -62 8 c-33 5 -85 11 -113 14 l-53 6 0 48 c0 45 2 48 29 53
16 4 38 17 48 31 10 14 20 26 23 26 3 0 18 -24 33 -54z m5002 -16 c3 -5 1 -10
-5 -10 -6 0 -9 -4 -6 -9 7 -10 -43 -25 -53 -16 -6 6 37 44 51 45 4 0 10 -4 13
-10z m-5370 -10 c3 -5 1 -10 -4 -10 -6 0 -11 5 -11 10 0 6 2 10 4 10 3 0 8 -4
11 -10z m4 -36 c-5 -7 -19 -10 -29 -7 -30 8 -24 18 9 18 22 1 27 -2 20 -11z"/>
<path d="M2990 2280 c0 -5 5 -10 11 -10 5 0 7 5 4 10 -3 6 -8 10 -11 10 -2 0
-4 -4 -4 -10z"/>
<path d="M2691 1764 c0 -11 3 -14 6 -6 3 7 2 16 -1 19 -3 4 -6 -2 -5 -13z"/>
<path d="M2702 1710 c0 -14 2 -19 5 -12 2 6 2 18 0 25 -3 6 -5 1 -5 -13z"/>
<path d="M7119 883 c-13 -16 -12 -17 4 -4 9 7 17 15 17 17 0 8 -8 3 -21 -13z"/>
<path d="M6928 883 c7 -3 16 -2 19 1 4 3 -2 6 -13 5 -11 0 -14 -3 -6 -6z"/>
<path d="M6978 873 c7 -3 16 -2 19 1 4 3 -2 6 -13 5 -11 0 -14 -3 -6 -6z"/>
<path d="M7043 863 c9 -2 23 -2 30 0 6 3 -1 5 -18 5 -16 0 -22 -2 -12 -5z"/>
<path d="M2776 1437 c3 -10 9 -15 12 -12 3 3 0 11 -7 18 -10 9 -11 8 -5 -6z"/>
<path d="M6322 3587 c-3 -123 -20 -247 -48 -345 -14 -49 -13 -60 5 -135 23
-95 32 -175 21 -182 -8 -5 1 -52 19 -98 30 -76 113 -180 179 -224 33 -23 144
-28 182 -8 36 19 37 22 8 20 -13 -1 -34 4 -48 11 -44 21 -128 109 -136 140 -4
16 -10 34 -15 39 -4 6 -11 29 -15 51 -7 49 22 119 63 149 54 40 139 120 166
158 66 90 125 235 104 256 -16 16 -23 14 -51 -14 -17 -16 -23 -31 -19 -46 6
-20 5 -21 -18 -6 -43 27 -101 30 -164 8 -65 -23 -104 -55 -145 -118 l-27 -42
2 50 c1 27 4 52 8 55 4 4 3 12 -2 18 -6 7 -3 27 5 51 8 22 16 45 17 51 2 9 13
24 45 59 6 7 12 18 12 24 0 6 9 11 20 11 11 0 20 5 20 10 0 6 7 10 15 10 20 0
49 56 33 66 -7 5 -8 3 -3 -6 5 -9 4 -11 -3 -6 -16 10 -15 26 2 26 7 0 40 -29
73 -65 48 -51 64 -63 81 -58 12 3 25 9 28 14 7 11 -41 81 -49 72 -4 -3 -7 -1
-7 5 0 21 -72 44 -122 39 -31 -2 -49 1 -52 8 -2 7 -26 23 -52 35 -43 21 -48
22 -59 7 -11 -15 -14 -14 -33 8 -12 14 -25 25 -29 25 -5 0 -9 -55 -11 -123z"/>
<path d="M6123 2862 c-90 -164 -159 -222 -264 -222 -85 0 -238 55 -304 109
-13 10 -11 6 5 -13 39 -45 132 -101 210 -126 127 -41 249 -9 307 80 13 19 27
40 32 46 14 17 58 184 48 184 -1 0 -16 -26 -34 -58z"/>
<path d="M7587 2717 c-15 -39 26 -167 72 -227 l20 -25 -3 25 c-2 14 -11 43
-21 65 -51 116 -63 153 -52 164 8 8 8 11 0 11 -6 0 -13 -6 -16 -13z"/>
<path d="M2652 2655 c0 -16 2 -22 5 -12 2 9 2 23 0 30 -3 6 -5 -1 -5 -18z"/>
<path d="M6213 2583 c-6 -29 -7 -52 -2 -59 5 -6 16 -35 25 -64 14 -48 17 -51
31 -37 13 13 14 25 5 75 -6 33 -19 77 -29 96 l-18 36 -12 -47z"/>
<path d="M2647 2605 c-4 -8 -2 -17 3 -20 6 -4 10 3 10 14 0 25 -6 27 -13 6z"/>
<path d="M2593 2493 c4 -3 1 -13 -6 -22 -11 -14 -10 -14 5 -2 16 12 16 31 1
31 -4 0 -3 -3 0 -7z"/>
<path d="M7754 2398 c0 -12 7 -23 14 -26 16 -5 15 23 -2 37 -10 9 -13 7 -12
-11z"/>
<path d="M2387 2394 c-21 -22 9 -36 50 -24 28 8 28 8 3 9 -15 1 -31 6 -36 11
-6 6 -13 7 -17 4z"/>
<path d="M6341 2295 c28 -60 28 -59 34 -54 5 6 -31 78 -47 94 -5 6 1 -12 13
-40z"/>
<path d="M2255 2090 c-3 -5 -1 -10 4 -10 6 0 11 5 11 10 0 6 -2 10 -4 10 -3 0
-8 -4 -11 -10z"/>
<path d="M2373 1770 c0 -41 2 -58 4 -37 2 20 2 54 0 75 -2 20 -4 3 -4 -38z"/>
<path d="M3461 1827 c2 -2 22 -15 44 -31 l40 -27 -35 30 c-19 17 -39 31 -44
31 -5 0 -7 -1 -5 -3z"/>
<path d="M3265 1788 c-34 -12 -135 -68 -135 -74 0 -2 33 12 73 32 41 21 96 40
127 44 55 7 55 7 10 8 -25 0 -58 -4 -75 -10z"/>
<path d="M8093 1770 c27 -57 98 -190 102 -190 2 0 -16 42 -41 93 -25 50 -43
100 -41 109 3 11 -1 16 -13 15 -16 -1 -17 -4 -7 -27z"/>
<path d="M3410 1780 c8 -5 20 -10 25 -10 6 0 3 5 -5 10 -8 5 -19 10 -25 10 -5
0 -3 -5 5 -10z"/>
<path d="M3455 1763 c6 -5 42 -38 80 -73 l70 -64 -60 63 c-33 34 -69 67 -80
73 -11 6 -15 6 -10 1z"/>
<path d="M3185 1723 c-61 -32 -105 -74 -105 -99 0 -13 4 -24 8 -24 4 0 36 32
71 70 34 39 61 70 59 70 -2 -1 -16 -8 -33 -17z"/>
<path d="M2075 1710 c-4 -6 15 -20 42 -32 26 -11 66 -33 88 -48 62 -42 103
-61 110 -50 8 13 -184 140 -212 140 -12 0 -25 -5 -28 -10z"/>
<path d="M2361 1664 c0 -11 3 -14 6 -6 3 7 2 16 -1 19 -3 4 -6 -2 -5 -13z"/>
<path d="M3004 1638 l-19 -23 23 19 c12 11 22 21 22 23 0 8 -8 2 -26 -19z"/>
<path d="M3622 1600 c7 -11 17 -20 22 -20 5 0 1 9 -9 20 -10 11 -20 20 -22 20
-2 0 2 -9 9 -20z"/>
<path d="M8140 1171 c0 -6 4 -13 10 -16 6 -3 7 1 4 9 -7 18 -14 21 -14 7z"/>
<path d="M2817 1070 c3 -25 7 -47 9 -49 8 -9 2 55 -6 74 -6 13 -7 5 -3 -25z"/>
<path d="M3358 893 c7 -3 16 -2 19 1 4 3 -2 6 -13 5 -11 0 -14 -3 -6 -6z"/>
<path d="M3298 883 c6 -2 18 -2 25 0 6 3 1 5 -13 5 -14 0 -19 -2 -12 -5z"/>
<path d="M3233 873 c9 -2 23 -2 30 0 6 3 -1 5 -18 5 -16 0 -22 -2 -12 -5z"/>
</g>
</svg>
