<svg xmlns="http://www.w3.org/2000/svg" viewBox="0 0 64 64" width = "60px" height = "60px"><path fill="#57565c" d="M61,13V60H34.23a2.986,2.986,0,0,1-4.46,0H3V13Z"/><rect width="50" height="45" x="7" y="11" fill="#b39a7c"/><rect width="32" height="31" x="16" y="7" fill="#898890"/><polygon fill="#b39a7c" points="32 56 7 56 7 13 7 11 12 11 12 13 16 13 16 17 12 17 12 20 16 20 16 24 12 24 12 27 16 27 16 31 12 31 12 34 16 34 16 38 20 38 20 42 23 42 23 38 27 38 27 42 30 42 30 38 34 38 34 42 37 42 37 38 41 38 41 42 44 42 44 38 48 38 48 34 52 34 52 31 48 31 48 27 52 27 52 24 48 24 48 20 52 20 52 17 48 17 48 13 52 13 52 11 57 11 57 13 57 56 32 56"/><path fill="#46f8ff" d="M24 16a3 3 0 0 1 6 0V31a2 2 0 0 1-4 0 1.952 1.952 0 0 1 .2-.87L26 30a3 3 0 0 1-3-3 2.723 2.723 0 0 1 .21-1.07A5 5 0 0 1 24 16zM40 16a5 5 0 0 1 .79 9.93A2.723 2.723 0 0 1 41 27a3 3 0 0 1-3 3l-.2.13A1.952 1.952 0 0 1 38 31a2 2 0 0 1-4 0V16a3 3 0 0 1 6 0z"/><polygon fill="#e0e0e2" points="16 10 16 13 12 13 12 11 12 10 16 10"/><rect width="4" height="3" x="12" y="17" fill="#e0e0e2"/><rect width="4" height="3" x="12" y="24" fill="#e0e0e2"/><rect width="4" height="3" x="12" y="31" fill="#e0e0e2"/><rect width="3" height="4" x="20" y="38" fill="#e0e0e2"/><rect width="3" height="4" x="27" y="38" fill="#e0e0e2"/><rect width="3" height="4" x="34" y="38" fill="#e0e0e2"/><rect width="3" height="4" x="41" y="38" fill="#e0e0e2"/><rect width="4" height="3" x="48" y="31" fill="#e0e0e2"/><rect width="4" height="3" x="48" y="24" fill="#e0e0e2"/><rect width="4" height="3" x="48" y="17" fill="#e0e0e2"/><polygon fill="#e0e0e2" points="52 11 52 13 48 13 48 10 52 10 52 11"/><rect width="3" height="4" x="41" y="3" fill="#e0e0e2"/><rect width="3" height="4" x="34" y="3" fill="#e0e0e2"/><rect width="3" height="4" x="27" y="3" fill="#e0e0e2"/><rect width="3" height="4" x="20" y="3" fill="#e0e0e2"/><path d="M36 34a3 3 0 0 0 3-3c0-.047-.008-.092-.01-.139A4 4 0 0 0 42 27q0-.171-.015-.339a5.995 5.995 0 0 0-1.1-11.589A3.994 3.994 0 0 0 33 16V31A3 3 0 0 0 36 34zM35 16a1.994 1.994 0 0 1 3.789-.876 5.876 5.876 0 0 0-1.193.381l.808 1.829A3.92 3.92 0 0 1 40 17a4 4 0 0 1 .637 7.942 1 1 0 0 0-.768 1.378A1.732 1.732 0 0 1 40 27a2 2 0 0 1-1.785 1.978 3.005 3.005 0 0 0-1.047-.742l-.779 1.842A1 1 0 1 1 35 31zM22.015 26.661Q22 26.829 22 27a4 4 0 0 0 3.01 3.861c0 .047-.01.092-.01.139a3 3 0 0 0 6 0V16a3.994 3.994 0 0 0-7.88-.928 5.995 5.995 0 0 0-1.105 11.589zM24 17a3.92 3.92 0 0 1 1.6.334l.808-1.829a5.876 5.876 0 0 0-1.193-.381A1.994 1.994 0 0 1 29 16V31a1 1 0 1 1-1.389-.922l-.779-1.842a3.005 3.005 0 0 0-1.047.742A2 2 0 0 1 24 27a1.732 1.732 0 0 1 .131-.68 1 1 0 0 0-.768-1.378A4 4 0 0 1 24 17z"/><rect width="4" height="2" x="10" y="47"/><rect width="13" height="2" x="16" y="47"/><rect width="19" height="2" x="10" y="51"/><rect width="19" height="2" x="35" y="47"/><rect width="4" height="2" x="35" y="51"/><rect width="13" height="2" x="41" y="51"/><path d="M61,12H58V11a1,1,0,0,0-1-1H53a1,1,0,0,0-1-1H49V7a1,1,0,0,0-1-1H45V3a1,1,0,0,0-1-1H41a1,1,0,0,0-1,1V6H38V3a1,1,0,0,0-1-1H34a1,1,0,0,0-1,1V6H31V3a1,1,0,0,0-1-1H27a1,1,0,0,0-1,1V6H24V3a1,1,0,0,0-1-1H20a1,1,0,0,0-1,1V6H16a1,1,0,0,0-1,1V9H12a1,1,0,0,0-1,1H7a1,1,0,0,0-1,1v1H3a1,1,0,0,0-1,1V60a1,1,0,0,0,1,1H29.354a4,4,0,0,0,5.292,0H61a1,1,0,0,0,1-1V13A1,1,0,0,0,61,12ZM51,11v1H49V11Zm-2,7h2v1H49Zm0,7h2v1H49Zm0,7h2v1H49ZM42,4h1V6H42ZM35,4h1V6H35ZM28,4h1V6H28ZM21,4h1V6H21ZM17,8H47V37H17ZM42,39h1v2H42Zm-7,0h1v2H35Zm-7,0h1v2H28Zm-7,0h1v2H21Zm-6-6H13V32h2Zm0-7H13V25h2Zm0-7H13V18h2Zm-2-8h2v1H13ZM8,12h3v1a1,1,0,0,0,1,1h3v2H12a1,1,0,0,0-1,1v3a1,1,0,0,0,1,1h3v2H12a1,1,0,0,0-1,1v3a1,1,0,0,0,1,1h3v2H12a1,1,0,0,0-1,1v3a1,1,0,0,0,1,1h3v3a1,1,0,0,0,1,1h3v3a1,1,0,0,0,1,1h3a1,1,0,0,0,1-1V39h2v3a1,1,0,0,0,1,1h3a1,1,0,0,0,1-1V39h2v3a1,1,0,0,0,1,1h3a1,1,0,0,0,1-1V39h2v3a1,1,0,0,0,1,1h3a1,1,0,0,0,1-1V39h3a1,1,0,0,0,1-1V35h3a1,1,0,0,0,1-1V31a1,1,0,0,0-1-1H49V28h3a1,1,0,0,0,1-1V24a1,1,0,0,0-1-1H49V21h3a1,1,0,0,0,1-1V17a1,1,0,0,0-1-1H49V14h3a1,1,0,0,0,1-1V12h3V55H33V45H31V55H8ZM60,59H34.23a1,1,0,0,0-.753.343,2.055,2.055,0,0,1-2.954,0A1,1,0,0,0,29.77,59H4V14H6V56a1,1,0,0,0,1,1H57a1,1,0,0,0,1-1V14h2Z"/><rect width="6" height="2" x="48" y="43"/><rect width="6" height="2" x="10" y="43"/></svg>