<?xml version="1.0" standalone="no"?>
<!DOCTYPE svg PUBLIC "-//W3C//DTD SVG 20010904//EN"
 "http://www.w3.org/TR/2001/REC-SVG-20010904/DTD/svg10.dtd">
<svg version="1.0" xmlns="http://www.w3.org/2000/svg"
 width="60px" height="60px" viewBox="0 0 180.000000 180.000000"
 preserveAspectRatio="xMidYMid meet">

<g transform="translate(0.000000,180.000000) scale(0.100000,-0.100000)"
fill="#000000" stroke="none">
<path d="M0 900 l0 -900 900 0 900 0 0 900 0 900 -900 0 -900 0 0 -900z m1350
390 l0 -50 -385 0 -385 0 0 -395 0 -395 -60 0 -60 0 0 445 0 445 445 0 445 0
0 -50z m0 -195 l0 -55 -280 0 -280 0 0 -295 0 -295 -60 0 -60 0 0 350 0 350
340 0 340 0 0 -55z m0 -190 l0 -55 -175 0 -175 0 0 -200 0 -200 -55 0 -55 0 0
255 0 255 230 0 230 0 0 -55z"/>
</g>
</svg>
