<?xml version="1.0" standalone="no"?>
<!DOCTYPE svg PUBLIC "-//W3C//DTD SVG 20010904//EN"
 "http://www.w3.org/TR/2001/REC-SVG-20010904/DTD/svg10.dtd">
<svg version="1.0" xmlns="http://www.w3.org/2000/svg"
 width="60px" height="60px" viewBox="0 0 16.000000 16.000000"
 preserveAspectRatio="xMidYMid meet">

<g transform="translate(0.000000,16.000000) scale(0.100000,-0.100000)"
fill="#000000" stroke="none">
<path d="M0 80 l0 -80 80 0 80 0 0 80 0 80 -80 0 -80 0 0 -80z m50 23 c0 -13
8 -18 30 -18 22 0 30 5 30 18 0 9 4 17 9 17 17 0 33 -29 26 -49 -7 -24 -32
-34 -39 -15 -7 18 -45 18 -52 0 -7 -19 -32 -9 -39 15 -7 20 9 49 26 49 5 0 9
-8 9 -17z"/>
</g>
</svg>
